<svg xmlns="http://www.w3.org/2000/svg" width="960" height="540" viewBox="0 0 960 540" role="img" aria-labelledby="title desc">
<title id="title">RVM: Let the graph shape isolation</title><desc id="desc">Let the graph shape isolation. Agent communication feeds the optional coherence control loop.</desc>
<defs>
<radialGradient id="ambient"><stop stop-color="#183246" stop-opacity=".62"/><stop offset="1" stop-color="#05090f" stop-opacity="0"/></radialGradient>
<linearGradient id="panel" x2="1" y2="1"><stop stop-color="#102233"/><stop offset="1" stop-color="#08111c"/></linearGradient>
<linearGradient id="beam"><stop stop-color="#b1d9ff"/><stop offset=".5" stop-color="#7ef0cf"/><stop offset="1" stop-color="#ffac78"/></linearGradient>
<filter id="glow" x="-100%" y="-100%" width="300%" height="300%"><feGaussianBlur stdDeviation="3"/></filter>
<marker id="arrow" markerWidth="8" markerHeight="8" refX="7" refY="4" orient="auto" markerUnits="userSpaceOnUse"><path d="M1 1L7 4L1 7" fill="none" stroke="#9bb1c7" stroke-width="1.4"/></marker>
<clipPath id="frame"><rect width="960" height="540" rx="22"/></clipPath>
</defs><style>
text{font-family:Inter,"Segoe UI",Arial,sans-serif} .mono{font-family:"SFMono-Regular",Consolas,monospace}
.packet{stroke-dasharray:5 95;animation:travel 3.6s linear infinite}
.trace{stroke-dasharray:26 74;animation:travel 6s linear infinite}
.orbit{transform-box:fill-box;transform-origin:center;animation:orbit 24s linear infinite}
.counter-orbit{transform-box:fill-box;transform-origin:center;animation:orbit 32s linear infinite reverse}
.pulse{animation:pulse 3.6s ease-in-out infinite}
.float{animation:float 7s ease-in-out infinite}
.scan{animation:scan 5s ease-in-out infinite}
.step{animation:step 8s ease-in-out infinite}
.cursor{animation:blink 1.2s steps(2,end) infinite}
.still{display:none}
@keyframes travel{to{stroke-dashoffset:-100}}
@keyframes orbit{to{transform:rotate(360deg)}}
@keyframes pulse{0%,100%{opacity:.45}50%{opacity:1}}
@keyframes float{0%,100%{transform:translateY(0)}50%{transform:translateY(-9px)}}
@keyframes scan{0%,100%{transform:translateX(0);opacity:0}10%,90%{opacity:.7}50%{transform:translateX(228px)}}
@keyframes step{0%,20%,100%{stroke:#7ef0cf;stroke-opacity:.9}28%,92%{stroke:#2b4358;stroke-opacity:1}}
@keyframes blink{50%{opacity:0}}
@media(prefers-reduced-motion:reduce){
 *{animation:none!important;transition:none!important}
 .motion{display:none!important}.still{display:inline!important}
 .scene{display:none!important}.scene-first{display:inline!important;opacity:1!important}
 .packet,.trace{stroke-dasharray:none!important;opacity:.7}.scan{display:none}
}
</style><rect x="0" y="0" width="960" height="540" rx="22" fill="#05090f" stroke="#2b4358" /><ellipse cx="690" cy="259.2" rx="470" ry="378.0" fill="url(#ambient)"/><circle cx="32" cy="24" r="0.7" fill="#26394c" opacity=".45"/><circle cx="32" cy="56" r="0.7" fill="#26394c" opacity=".45"/><circle cx="32" cy="88" r="0.7" fill="#26394c" opacity=".45"/><circle cx="32" cy="120" r="0.7" fill="#26394c" opacity=".45"/><circle cx="32" cy="152" r="0.7" fill="#26394c" opacity=".45"/><circle cx="32" cy="184" r="0.7" fill="#26394c" opacity=".45"/><circle cx="32" cy="216" r="0.7" fill="#26394c" opacity=".45"/><circle cx="32" cy="248" r="0.7" fill="#26394c" opacity=".45"/><circle cx="32" cy="280" r="0.7" fill="#26394c" opacity=".45"/><circle cx="32" cy="312" r="0.7" fill="#26394c" opacity=".45"/><circle cx="32" cy="344" r="0.7" fill="#26394c" opacity=".45"/><circle cx="32" cy="376" r="0.7" fill="#26394c" opacity=".45"/><circle cx="32" cy="408" r="0.7" fill="#26394c" opacity=".45"/><circle cx="32" cy="440" r="0.7" fill="#26394c" opacity=".45"/><circle cx="32" cy="472" r="0.7" fill="#26394c" opacity=".45"/><circle cx="32" cy="504" r="0.7" fill="#26394c" opacity=".45"/><circle cx="32" cy="536" r="0.7" fill="#26394c" opacity=".45"/><circle cx="64" cy="24" r="0.7" fill="#26394c" opacity=".45"/><circle cx="64" cy="56" r="0.7" fill="#26394c" opacity=".45"/><circle cx="64" cy="88" r="0.7" fill="#26394c" opacity=".45"/><circle cx="64" cy="120" r="0.7" fill="#26394c" opacity=".45"/><circle cx="64" cy="152" r="0.7" fill="#26394c" opacity=".45"/><circle cx="64" cy="184" r="0.7" fill="#26394c" opacity=".45"/><circle cx="64" cy="216" r="0.7" fill="#26394c" opacity=".45"/><circle cx="64" cy="248" r="0.7" fill="#26394c" opacity=".45"/><circle cx="64" cy="280" r="0.7" fill="#26394c" opacity=".45"/><circle cx="64" cy="312" r="0.7" fill="#26394c" opacity=".45"/><circle cx="64" cy="344" r="0.7" fill="#26394c" opacity=".45"/><circle cx="64" cy="376" r="0.7" fill="#26394c" opacity=".45"/><circle cx="64" cy="408" r="0.7" fill="#26394c" opacity=".45"/><circle cx="64" cy="440" r="0.7" fill="#26394c" opacity=".45"/><circle cx="64" cy="472" r="0.7" fill="#26394c" opacity=".45"/><circle cx="64" cy="504" r="0.7" fill="#26394c" opacity=".45"/><circle cx="64" cy="536" r="0.7" fill="#26394c" opacity=".45"/><circle cx="96" cy="24" r="0.7" fill="#26394c" opacity=".45"/><circle cx="96" cy="56" r="0.7" fill="#26394c" opacity=".45"/><circle cx="96" cy="88" r="0.7" fill="#26394c" opacity=".45"/><circle cx="96" cy="120" r="0.7" fill="#26394c" opacity=".45"/><circle cx="96" cy="152" r="0.7" fill="#26394c" opacity=".45"/><circle cx="96" cy="184" r="0.7" fill="#26394c" opacity=".45"/><circle cx="96" cy="216" r="0.7" fill="#26394c" opacity=".45"/><circle cx="96" cy="248" r="0.7" fill="#26394c" opacity=".45"/><circle cx="96" cy="280" r="0.7" fill="#26394c" opacity=".45"/><circle cx="96" cy="312" r="0.7" fill="#26394c" opacity=".45"/><circle cx="96" cy="344" r="0.7" fill="#26394c" opacity=".45"/><circle cx="96" cy="376" r="0.7" fill="#26394c" opacity=".45"/><circle cx="96" cy="408" r="0.7" fill="#26394c" opacity=".45"/><circle cx="96" cy="440" r="0.7" fill="#26394c" opacity=".45"/><circle cx="96" cy="472" r="0.7" fill="#26394c" opacity=".45"/><circle cx="96" cy="504" r="0.7" fill="#26394c" opacity=".45"/><circle cx="96" cy="536" r="0.7" fill="#26394c" opacity=".45"/><circle cx="128" cy="24" r="0.7" fill="#26394c" opacity=".45"/><circle cx="128" cy="56" r="0.7" fill="#26394c" opacity=".45"/><circle cx="128" cy="88" r="0.7" fill="#26394c" opacity=".45"/><circle cx="128" cy="120" r="0.7" fill="#26394c" opacity=".45"/><circle cx="128" cy="152" r="0.7" fill="#26394c" opacity=".45"/><circle cx="128" cy="184" r="0.7" fill="#26394c" opacity=".45"/><circle cx="128" cy="216" r="0.7" fill="#26394c" opacity=".45"/><circle cx="128" cy="248" r="0.7" fill="#26394c" opacity=".45"/><circle cx="128" cy="280" r="0.7" fill="#26394c" opacity=".45"/><circle cx="128" cy="312" r="0.7" fill="#26394c" opacity=".45"/><circle cx="128" cy="344" r="0.7" fill="#26394c" opacity=".45"/><circle cx="128" cy="376" r="0.7" fill="#26394c" opacity=".45"/><circle cx="128" cy="408" r="0.7" fill="#26394c" opacity=".45"/><circle cx="128" cy="440" r="0.7" fill="#26394c" opacity=".45"/><circle cx="128" cy="472" r="0.7" fill="#26394c" opacity=".45"/><circle cx="128" cy="504" r="0.7" fill="#26394c" opacity=".45"/><circle cx="128" cy="536" r="0.7" fill="#26394c" opacity=".45"/><circle cx="160" cy="24" r="0.7" fill="#26394c" opacity=".45"/><circle cx="160" cy="56" r="0.7" fill="#26394c" opacity=".45"/><circle cx="160" cy="88" r="0.7" fill="#26394c" opacity=".45"/><circle cx="160" cy="120" r="0.7" fill="#26394c" opacity=".45"/><circle cx="160" cy="152" r="0.7" fill="#26394c" opacity=".45"/><circle cx="160" cy="184" r="0.7" fill="#26394c" opacity=".45"/><circle cx="160" cy="216" r="0.7" fill="#26394c" opacity=".45"/><circle cx="160" cy="248" r="0.7" fill="#26394c" opacity=".45"/><circle cx="160" cy="280" r="0.7" fill="#26394c" opacity=".45"/><circle cx="160" cy="312" r="0.7" fill="#26394c" opacity=".45"/><circle cx="160" cy="344" r="0.7" fill="#26394c" opacity=".45"/><circle cx="160" cy="376" r="0.7" fill="#26394c" opacity=".45"/><circle cx="160" cy="408" r="0.7" fill="#26394c" opacity=".45"/><circle cx="160" cy="440" r="0.7" fill="#26394c" opacity=".45"/><circle cx="160" cy="472" r="0.7" fill="#26394c" opacity=".45"/><circle cx="160" cy="504" r="0.7" fill="#26394c" opacity=".45"/><circle cx="160" cy="536" r="0.7" fill="#26394c" opacity=".45"/><circle cx="192" cy="24" r="0.7" fill="#26394c" opacity=".45"/><circle cx="192" cy="56" r="0.7" fill="#26394c" opacity=".45"/><circle cx="192" cy="88" r="0.7" fill="#26394c" opacity=".45"/><circle cx="192" cy="120" r="0.7" fill="#26394c" opacity=".45"/><circle cx="192" cy="152" r="0.7" fill="#26394c" opacity=".45"/><circle cx="192" cy="184" r="0.7" fill="#26394c" opacity=".45"/><circle cx="192" cy="216" r="0.7" fill="#26394c" opacity=".45"/><circle cx="192" cy="248" r="0.7" fill="#26394c" opacity=".45"/><circle cx="192" cy="280" r="0.7" fill="#26394c" opacity=".45"/><circle cx="192" cy="312" r="0.7" fill="#26394c" opacity=".45"/><circle cx="192" cy="344" r="0.7" fill="#26394c" opacity=".45"/><circle cx="192" cy="376" r="0.7" fill="#26394c" opacity=".45"/><circle cx="192" cy="408" r="0.7" fill="#26394c" opacity=".45"/><circle cx="192" cy="440" r="0.7" fill="#26394c" opacity=".45"/><circle cx="192" cy="472" r="0.7" fill="#26394c" opacity=".45"/><circle cx="192" cy="504" r="0.7" fill="#26394c" opacity=".45"/><circle cx="192" cy="536" r="0.7" fill="#26394c" opacity=".45"/><circle cx="224" cy="24" r="0.7" fill="#26394c" opacity=".45"/><circle cx="224" cy="56" r="0.7" fill="#26394c" opacity=".45"/><circle cx="224" cy="88" r="0.7" fill="#26394c" opacity=".45"/><circle cx="224" cy="120" r="0.7" fill="#26394c" opacity=".45"/><circle cx="224" cy="152" r="0.7" fill="#26394c" opacity=".45"/><circle cx="224" cy="184" r="0.7" fill="#26394c" opacity=".45"/><circle cx="224" cy="216" r="0.7" fill="#26394c" opacity=".45"/><circle cx="224" cy="248" r="0.7" fill="#26394c" opacity=".45"/><circle cx="224" cy="280" r="0.7" fill="#26394c" opacity=".45"/><circle cx="224" cy="312" r="0.7" fill="#26394c" opacity=".45"/><circle cx="224" cy="344" r="0.7" fill="#26394c" opacity=".45"/><circle cx="224" cy="376" r="0.7" fill="#26394c" opacity=".45"/><circle cx="224" cy="408" r="0.7" fill="#26394c" opacity=".45"/><circle cx="224" cy="440" r="0.7" fill="#26394c" opacity=".45"/><circle cx="224" cy="472" r="0.7" fill="#26394c" opacity=".45"/><circle cx="224" cy="504" r="0.7" fill="#26394c" opacity=".45"/><circle cx="224" cy="536" r="0.7" fill="#26394c" opacity=".45"/><circle cx="256" cy="24" r="0.7" fill="#26394c" opacity=".45"/><circle cx="256" cy="56" r="0.7" fill="#26394c" opacity=".45"/><circle cx="256" cy="88" r="0.7" fill="#26394c" opacity=".45"/><circle cx="256" cy="120" r="0.7" fill="#26394c" opacity=".45"/><circle cx="256" cy="152" r="0.7" fill="#26394c" opacity=".45"/><circle cx="256" cy="184" r="0.7" fill="#26394c" opacity=".45"/><circle cx="256" cy="216" r="0.7" fill="#26394c" opacity=".45"/><circle cx="256" cy="248" r="0.7" fill="#26394c" opacity=".45"/><circle cx="256" cy="280" r="0.7" fill="#26394c" opacity=".45"/><circle cx="256" cy="312" r="0.7" fill="#26394c" opacity=".45"/><circle cx="256" cy="344" r="0.7" fill="#26394c" opacity=".45"/><circle cx="256" cy="376" r="0.7" fill="#26394c" opacity=".45"/><circle cx="256" cy="408" r="0.7" fill="#26394c" opacity=".45"/><circle cx="256" cy="440" r="0.7" fill="#26394c" opacity=".45"/><circle cx="256" cy="472" r="0.7" fill="#26394c" opacity=".45"/><circle cx="256" cy="504" r="0.7" fill="#26394c" opacity=".45"/><circle cx="256" cy="536" r="0.7" fill="#26394c" opacity=".45"/><circle cx="288" cy="24" r="0.7" fill="#26394c" opacity=".45"/><circle cx="288" cy="56" r="0.7" fill="#26394c" opacity=".45"/><circle cx="288" cy="88" r="0.7" fill="#26394c" opacity=".45"/><circle cx="288" cy="120" r="0.7" fill="#26394c" opacity=".45"/><circle cx="288" cy="152" r="0.7" fill="#26394c" opacity=".45"/><circle cx="288" cy="184" r="0.7" fill="#26394c" opacity=".45"/><circle cx="288" cy="216" r="0.7" fill="#26394c" opacity=".45"/><circle cx="288" cy="248" r="0.7" fill="#26394c" opacity=".45"/><circle cx="288" cy="280" r="0.7" fill="#26394c" opacity=".45"/><circle cx="288" cy="312" r="0.7" fill="#26394c" opacity=".45"/><circle cx="288" cy="344" r="0.7" fill="#26394c" opacity=".45"/><circle cx="288" cy="376" r="0.7" fill="#26394c" opacity=".45"/><circle cx="288" cy="408" r="0.7" fill="#26394c" opacity=".45"/><circle cx="288" cy="440" r="0.7" fill="#26394c" opacity=".45"/><circle cx="288" cy="472" r="0.7" fill="#26394c" opacity=".45"/><circle cx="288" cy="504" r="0.7" fill="#26394c" opacity=".45"/><circle cx="288" cy="536" r="0.7" fill="#26394c" opacity=".45"/><circle cx="320" cy="24" r="0.7" fill="#26394c" opacity=".45"/><circle cx="320" cy="56" r="0.7" fill="#26394c" opacity=".45"/><circle cx="320" cy="88" r="0.7" fill="#26394c" opacity=".45"/><circle cx="320" cy="120" r="0.7" fill="#26394c" opacity=".45"/><circle cx="320" cy="152" r="0.7" fill="#26394c" opacity=".45"/><circle cx="320" cy="184" r="0.7" fill="#26394c" opacity=".45"/><circle cx="320" cy="216" r="0.7" fill="#26394c" opacity=".45"/><circle cx="320" cy="248" r="0.7" fill="#26394c" opacity=".45"/><circle cx="320" cy="280" r="0.7" fill="#26394c" opacity=".45"/><circle cx="320" cy="312" r="0.7" fill="#26394c" opacity=".45"/><circle cx="320" cy="344" r="0.7" fill="#26394c" opacity=".45"/><circle cx="320" cy="376" r="0.7" fill="#26394c" opacity=".45"/><circle cx="320" cy="408" r="0.7" fill="#26394c" opacity=".45"/><circle cx="320" cy="440" r="0.7" fill="#26394c" opacity=".45"/><circle cx="320" cy="472" r="0.7" fill="#26394c" opacity=".45"/><circle cx="320" cy="504" r="0.7" fill="#26394c" opacity=".45"/><circle cx="320" cy="536" r="0.7" fill="#26394c" opacity=".45"/><circle cx="352" cy="24" r="0.7" fill="#26394c" opacity=".45"/><circle cx="352" cy="56" r="0.7" fill="#26394c" opacity=".45"/><circle cx="352" cy="88" r="0.7" fill="#26394c" opacity=".45"/><circle cx="352" cy="120" r="0.7" fill="#26394c" opacity=".45"/><circle cx="352" cy="152" r="0.7" fill="#26394c" opacity=".45"/><circle cx="352" cy="184" r="0.7" fill="#26394c" opacity=".45"/><circle cx="352" cy="216" r="0.7" fill="#26394c" opacity=".45"/><circle cx="352" cy="248" r="0.7" fill="#26394c" opacity=".45"/><circle cx="352" cy="280" r="0.7" fill="#26394c" opacity=".45"/><circle cx="352" cy="312" r="0.7" fill="#26394c" opacity=".45"/><circle cx="352" cy="344" r="0.7" fill="#26394c" opacity=".45"/><circle cx="352" cy="376" r="0.7" fill="#26394c" opacity=".45"/><circle cx="352" cy="408" r="0.7" fill="#26394c" opacity=".45"/><circle cx="352" cy="440" r="0.7" fill="#26394c" opacity=".45"/><circle cx="352" cy="472" r="0.7" fill="#26394c" opacity=".45"/><circle cx="352" cy="504" r="0.7" fill="#26394c" opacity=".45"/><circle cx="352" cy="536" r="0.7" fill="#26394c" opacity=".45"/><circle cx="384" cy="24" r="0.7" fill="#26394c" opacity=".45"/><circle cx="384" cy="56" r="0.7" fill="#26394c" opacity=".45"/><circle cx="384" cy="88" r="0.7" fill="#26394c" opacity=".45"/><circle cx="384" cy="120" r="0.7" fill="#26394c" opacity=".45"/><circle cx="384" cy="152" r="0.7" fill="#26394c" opacity=".45"/><circle cx="384" cy="184" r="0.7" fill="#26394c" opacity=".45"/><circle cx="384" cy="216" r="0.7" fill="#26394c" opacity=".45"/><circle cx="384" cy="248" r="0.7" fill="#26394c" opacity=".45"/><circle cx="384" cy="280" r="0.7" fill="#26394c" opacity=".45"/><circle cx="384" cy="312" r="0.7" fill="#26394c" opacity=".45"/><circle cx="384" cy="344" r="0.7" fill="#26394c" opacity=".45"/><circle cx="384" cy="376" r="0.7" fill="#26394c" opacity=".45"/><circle cx="384" cy="408" r="0.7" fill="#26394c" opacity=".45"/><circle cx="384" cy="440" r="0.7" fill="#26394c" opacity=".45"/><circle cx="384" cy="472" r="0.7" fill="#26394c" opacity=".45"/><circle cx="384" cy="504" r="0.7" fill="#26394c" opacity=".45"/><circle cx="384" cy="536" r="0.7" fill="#26394c" opacity=".45"/><circle cx="416" cy="24" r="0.7" fill="#26394c" opacity=".45"/><circle cx="416" cy="56" r="0.7" fill="#26394c" opacity=".45"/><circle cx="416" cy="88" r="0.7" fill="#26394c" opacity=".45"/><circle cx="416" cy="120" r="0.7" fill="#26394c" opacity=".45"/><circle cx="416" cy="152" r="0.7" fill="#26394c" opacity=".45"/><circle cx="416" cy="184" r="0.7" fill="#26394c" opacity=".45"/><circle cx="416" cy="216" r="0.7" fill="#26394c" opacity=".45"/><circle cx="416" cy="248" r="0.7" fill="#26394c" opacity=".45"/><circle cx="416" cy="280" r="0.7" fill="#26394c" opacity=".45"/><circle cx="416" cy="312" r="0.7" fill="#26394c" opacity=".45"/><circle cx="416" cy="344" r="0.7" fill="#26394c" opacity=".45"/><circle cx="416" cy="376" r="0.7" fill="#26394c" opacity=".45"/><circle cx="416" cy="408" r="0.7" fill="#26394c" opacity=".45"/><circle cx="416" cy="440" r="0.7" fill="#26394c" opacity=".45"/><circle cx="416" cy="472" r="0.7" fill="#26394c" opacity=".45"/><circle cx="416" cy="504" r="0.7" fill="#26394c" opacity=".45"/><circle cx="416" cy="536" r="0.7" fill="#26394c" opacity=".45"/><circle cx="448" cy="24" r="0.7" fill="#26394c" opacity=".45"/><circle cx="448" cy="56" r="0.7" fill="#26394c" opacity=".45"/><circle cx="448" cy="88" r="0.7" fill="#26394c" opacity=".45"/><circle cx="448" cy="120" r="0.7" fill="#26394c" opacity=".45"/><circle cx="448" cy="152" r="0.7" fill="#26394c" opacity=".45"/><circle cx="448" cy="184" r="0.7" fill="#26394c" opacity=".45"/><circle cx="448" cy="216" r="0.7" fill="#26394c" opacity=".45"/><circle cx="448" cy="248" r="0.7" fill="#26394c" opacity=".45"/><circle cx="448" cy="280" r="0.7" fill="#26394c" opacity=".45"/><circle cx="448" cy="312" r="0.7" fill="#26394c" opacity=".45"/><circle cx="448" cy="344" r="0.7" fill="#26394c" opacity=".45"/><circle cx="448" cy="376" r="0.7" fill="#26394c" opacity=".45"/><circle cx="448" cy="408" r="0.7" fill="#26394c" opacity=".45"/><circle cx="448" cy="440" r="0.7" fill="#26394c" opacity=".45"/><circle cx="448" cy="472" r="0.7" fill="#26394c" opacity=".45"/><circle cx="448" cy="504" r="0.7" fill="#26394c" opacity=".45"/><circle cx="448" cy="536" r="0.7" fill="#26394c" opacity=".45"/><circle cx="480" cy="24" r="0.7" fill="#26394c" opacity=".45"/><circle cx="480" cy="56" r="0.7" fill="#26394c" opacity=".45"/><circle cx="480" cy="88" r="0.7" fill="#26394c" opacity=".45"/><circle cx="480" cy="120" r="0.7" fill="#26394c" opacity=".45"/><circle cx="480" cy="152" r="0.7" fill="#26394c" opacity=".45"/><circle cx="480" cy="184" r="0.7" fill="#26394c" opacity=".45"/><circle cx="480" cy="216" r="0.7" fill="#26394c" opacity=".45"/><circle cx="480" cy="248" r="0.7" fill="#26394c" opacity=".45"/><circle cx="480" cy="280" r="0.7" fill="#26394c" opacity=".45"/><circle cx="480" cy="312" r="0.7" fill="#26394c" opacity=".45"/><circle cx="480" cy="344" r="0.7" fill="#26394c" opacity=".45"/><circle cx="480" cy="376" r="0.7" fill="#26394c" opacity=".45"/><circle cx="480" cy="408" r="0.7" fill="#26394c" opacity=".45"/><circle cx="480" cy="440" r="0.7" fill="#26394c" opacity=".45"/><circle cx="480" cy="472" r="0.7" fill="#26394c" opacity=".45"/><circle cx="480" cy="504" r="0.7" fill="#26394c" opacity=".45"/><circle cx="480" cy="536" r="0.7" fill="#26394c" opacity=".45"/><circle cx="512" cy="24" r="0.7" fill="#26394c" opacity=".45"/><circle cx="512" cy="56" r="0.7" fill="#26394c" opacity=".45"/><circle cx="512" cy="88" r="0.7" fill="#26394c" opacity=".45"/><circle cx="512" cy="120" r="0.7" fill="#26394c" opacity=".45"/><circle cx="512" cy="152" r="0.7" fill="#26394c" opacity=".45"/><circle cx="512" cy="184" r="0.7" fill="#26394c" opacity=".45"/><circle cx="512" cy="216" r="0.7" fill="#26394c" opacity=".45"/><circle cx="512" cy="248" r="0.7" fill="#26394c" opacity=".45"/><circle cx="512" cy="280" r="0.7" fill="#26394c" opacity=".45"/><circle cx="512" cy="312" r="0.7" fill="#26394c" opacity=".45"/><circle cx="512" cy="344" r="0.7" fill="#26394c" opacity=".45"/><circle cx="512" cy="376" r="0.7" fill="#26394c" opacity=".45"/><circle cx="512" cy="408" r="0.7" fill="#26394c" opacity=".45"/><circle cx="512" cy="440" r="0.7" fill="#26394c" opacity=".45"/><circle cx="512" cy="472" r="0.7" fill="#26394c" opacity=".45"/><circle cx="512" cy="504" r="0.7" fill="#26394c" opacity=".45"/><circle cx="512" cy="536" r="0.7" fill="#26394c" opacity=".45"/><circle cx="544" cy="24" r="0.7" fill="#26394c" opacity=".45"/><circle cx="544" cy="56" r="0.7" fill="#26394c" opacity=".45"/><circle cx="544" cy="88" r="0.7" fill="#26394c" opacity=".45"/><circle cx="544" cy="120" r="0.7" fill="#26394c" opacity=".45"/><circle cx="544" cy="152" r="0.7" fill="#26394c" opacity=".45"/><circle cx="544" cy="184" r="0.7" fill="#26394c" opacity=".45"/><circle cx="544" cy="216" r="0.7" fill="#26394c" opacity=".45"/><circle cx="544" cy="248" r="0.7" fill="#26394c" opacity=".45"/><circle cx="544" cy="280" r="0.7" fill="#26394c" opacity=".45"/><circle cx="544" cy="312" r="0.7" fill="#26394c" opacity=".45"/><circle cx="544" cy="344" r="0.7" fill="#26394c" opacity=".45"/><circle cx="544" cy="376" r="0.7" fill="#26394c" opacity=".45"/><circle cx="544" cy="408" r="0.7" fill="#26394c" opacity=".45"/><circle cx="544" cy="440" r="0.7" fill="#26394c" opacity=".45"/><circle cx="544" cy="472" r="0.7" fill="#26394c" opacity=".45"/><circle cx="544" cy="504" r="0.7" fill="#26394c" opacity=".45"/><circle cx="544" cy="536" r="0.7" fill="#26394c" opacity=".45"/><circle cx="576" cy="24" r="0.7" fill="#26394c" opacity=".45"/><circle cx="576" cy="56" r="0.7" fill="#26394c" opacity=".45"/><circle cx="576" cy="88" r="0.7" fill="#26394c" opacity=".45"/><circle cx="576" cy="120" r="0.7" fill="#26394c" opacity=".45"/><circle cx="576" cy="152" r="0.7" fill="#26394c" opacity=".45"/><circle cx="576" cy="184" r="0.7" fill="#26394c" opacity=".45"/><circle cx="576" cy="216" r="0.7" fill="#26394c" opacity=".45"/><circle cx="576" cy="248" r="0.7" fill="#26394c" opacity=".45"/><circle cx="576" cy="280" r="0.7" fill="#26394c" opacity=".45"/><circle cx="576" cy="312" r="0.7" fill="#26394c" opacity=".45"/><circle cx="576" cy="344" r="0.7" fill="#26394c" opacity=".45"/><circle cx="576" cy="376" r="0.7" fill="#26394c" opacity=".45"/><circle cx="576" cy="408" r="0.7" fill="#26394c" opacity=".45"/><circle cx="576" cy="440" r="0.7" fill="#26394c" opacity=".45"/><circle cx="576" cy="472" r="0.7" fill="#26394c" opacity=".45"/><circle cx="576" cy="504" r="0.7" fill="#26394c" opacity=".45"/><circle cx="576" cy="536" r="0.7" fill="#26394c" opacity=".45"/><circle cx="608" cy="24" r="0.7" fill="#26394c" opacity=".45"/><circle cx="608" cy="56" r="0.7" fill="#26394c" opacity=".45"/><circle cx="608" cy="88" r="0.7" fill="#26394c" opacity=".45"/><circle cx="608" cy="120" r="0.7" fill="#26394c" opacity=".45"/><circle cx="608" cy="152" r="0.7" fill="#26394c" opacity=".45"/><circle cx="608" cy="184" r="0.7" fill="#26394c" opacity=".45"/><circle cx="608" cy="216" r="0.7" fill="#26394c" opacity=".45"/><circle cx="608" cy="248" r="0.7" fill="#26394c" opacity=".45"/><circle cx="608" cy="280" r="0.7" fill="#26394c" opacity=".45"/><circle cx="608" cy="312" r="0.7" fill="#26394c" opacity=".45"/><circle cx="608" cy="344" r="0.7" fill="#26394c" opacity=".45"/><circle cx="608" cy="376" r="0.7" fill="#26394c" opacity=".45"/><circle cx="608" cy="408" r="0.7" fill="#26394c" opacity=".45"/><circle cx="608" cy="440" r="0.7" fill="#26394c" opacity=".45"/><circle cx="608" cy="472" r="0.7" fill="#26394c" opacity=".45"/><circle cx="608" cy="504" r="0.7" fill="#26394c" opacity=".45"/><circle cx="608" cy="536" r="0.7" fill="#26394c" opacity=".45"/><circle cx="640" cy="24" r="0.7" fill="#26394c" opacity=".45"/><circle cx="640" cy="56" r="0.7" fill="#26394c" opacity=".45"/><circle cx="640" cy="88" r="0.7" fill="#26394c" opacity=".45"/><circle cx="640" cy="120" r="0.7" fill="#26394c" opacity=".45"/><circle cx="640" cy="152" r="0.7" fill="#26394c" opacity=".45"/><circle cx="640" cy="184" r="0.7" fill="#26394c" opacity=".45"/><circle cx="640" cy="216" r="0.7" fill="#26394c" opacity=".45"/><circle cx="640" cy="248" r="0.7" fill="#26394c" opacity=".45"/><circle cx="640" cy="280" r="0.7" fill="#26394c" opacity=".45"/><circle cx="640" cy="312" r="0.7" fill="#26394c" opacity=".45"/><circle cx="640" cy="344" r="0.7" fill="#26394c" opacity=".45"/><circle cx="640" cy="376" r="0.7" fill="#26394c" opacity=".45"/><circle cx="640" cy="408" r="0.7" fill="#26394c" opacity=".45"/><circle cx="640" cy="440" r="0.7" fill="#26394c" opacity=".45"/><circle cx="640" cy="472" r="0.7" fill="#26394c" opacity=".45"/><circle cx="640" cy="504" r="0.7" fill="#26394c" opacity=".45"/><circle cx="640" cy="536" r="0.7" fill="#26394c" opacity=".45"/><circle cx="672" cy="24" r="0.7" fill="#26394c" opacity=".45"/><circle cx="672" cy="56" r="0.7" fill="#26394c" opacity=".45"/><circle cx="672" cy="88" r="0.7" fill="#26394c" opacity=".45"/><circle cx="672" cy="120" r="0.7" fill="#26394c" opacity=".45"/><circle cx="672" cy="152" r="0.7" fill="#26394c" opacity=".45"/><circle cx="672" cy="184" r="0.7" fill="#26394c" opacity=".45"/><circle cx="672" cy="216" r="0.7" fill="#26394c" opacity=".45"/><circle cx="672" cy="248" r="0.7" fill="#26394c" opacity=".45"/><circle cx="672" cy="280" r="0.7" fill="#26394c" opacity=".45"/><circle cx="672" cy="312" r="0.7" fill="#26394c" opacity=".45"/><circle cx="672" cy="344" r="0.7" fill="#26394c" opacity=".45"/><circle cx="672" cy="376" r="0.7" fill="#26394c" opacity=".45"/><circle cx="672" cy="408" r="0.7" fill="#26394c" opacity=".45"/><circle cx="672" cy="440" r="0.7" fill="#26394c" opacity=".45"/><circle cx="672" cy="472" r="0.7" fill="#26394c" opacity=".45"/><circle cx="672" cy="504" r="0.7" fill="#26394c" opacity=".45"/><circle cx="672" cy="536" r="0.7" fill="#26394c" opacity=".45"/><circle cx="704" cy="24" r="0.7" fill="#26394c" opacity=".45"/><circle cx="704" cy="56" r="0.7" fill="#26394c" opacity=".45"/><circle cx="704" cy="88" r="0.7" fill="#26394c" opacity=".45"/><circle cx="704" cy="120" r="0.7" fill="#26394c" opacity=".45"/><circle cx="704" cy="152" r="0.7" fill="#26394c" opacity=".45"/><circle cx="704" cy="184" r="0.7" fill="#26394c" opacity=".45"/><circle cx="704" cy="216" r="0.7" fill="#26394c" opacity=".45"/><circle cx="704" cy="248" r="0.7" fill="#26394c" opacity=".45"/><circle cx="704" cy="280" r="0.7" fill="#26394c" opacity=".45"/><circle cx="704" cy="312" r="0.7" fill="#26394c" opacity=".45"/><circle cx="704" cy="344" r="0.7" fill="#26394c" opacity=".45"/><circle cx="704" cy="376" r="0.7" fill="#26394c" opacity=".45"/><circle cx="704" cy="408" r="0.7" fill="#26394c" opacity=".45"/><circle cx="704" cy="440" r="0.7" fill="#26394c" opacity=".45"/><circle cx="704" cy="472" r="0.7" fill="#26394c" opacity=".45"/><circle cx="704" cy="504" r="0.7" fill="#26394c" opacity=".45"/><circle cx="704" cy="536" r="0.7" fill="#26394c" opacity=".45"/><circle cx="736" cy="24" r="0.7" fill="#26394c" opacity=".45"/><circle cx="736" cy="56" r="0.7" fill="#26394c" opacity=".45"/><circle cx="736" cy="88" r="0.7" fill="#26394c" opacity=".45"/><circle cx="736" cy="120" r="0.7" fill="#26394c" opacity=".45"/><circle cx="736" cy="152" r="0.7" fill="#26394c" opacity=".45"/><circle cx="736" cy="184" r="0.7" fill="#26394c" opacity=".45"/><circle cx="736" cy="216" r="0.7" fill="#26394c" opacity=".45"/><circle cx="736" cy="248" r="0.7" fill="#26394c" opacity=".45"/><circle cx="736" cy="280" r="0.7" fill="#26394c" opacity=".45"/><circle cx="736" cy="312" r="0.7" fill="#26394c" opacity=".45"/><circle cx="736" cy="344" r="0.7" fill="#26394c" opacity=".45"/><circle cx="736" cy="376" r="0.7" fill="#26394c" opacity=".45"/><circle cx="736" cy="408" r="0.7" fill="#26394c" opacity=".45"/><circle cx="736" cy="440" r="0.7" fill="#26394c" opacity=".45"/><circle cx="736" cy="472" r="0.7" fill="#26394c" opacity=".45"/><circle cx="736" cy="504" r="0.7" fill="#26394c" opacity=".45"/><circle cx="736" cy="536" r="0.7" fill="#26394c" opacity=".45"/><circle cx="768" cy="24" r="0.7" fill="#26394c" opacity=".45"/><circle cx="768" cy="56" r="0.7" fill="#26394c" opacity=".45"/><circle cx="768" cy="88" r="0.7" fill="#26394c" opacity=".45"/><circle cx="768" cy="120" r="0.7" fill="#26394c" opacity=".45"/><circle cx="768" cy="152" r="0.7" fill="#26394c" opacity=".45"/><circle cx="768" cy="184" r="0.7" fill="#26394c" opacity=".45"/><circle cx="768" cy="216" r="0.7" fill="#26394c" opacity=".45"/><circle cx="768" cy="248" r="0.7" fill="#26394c" opacity=".45"/><circle cx="768" cy="280" r="0.7" fill="#26394c" opacity=".45"/><circle cx="768" cy="312" r="0.7" fill="#26394c" opacity=".45"/><circle cx="768" cy="344" r="0.7" fill="#26394c" opacity=".45"/><circle cx="768" cy="376" r="0.7" fill="#26394c" opacity=".45"/><circle cx="768" cy="408" r="0.7" fill="#26394c" opacity=".45"/><circle cx="768" cy="440" r="0.7" fill="#26394c" opacity=".45"/><circle cx="768" cy="472" r="0.7" fill="#26394c" opacity=".45"/><circle cx="768" cy="504" r="0.7" fill="#26394c" opacity=".45"/><circle cx="768" cy="536" r="0.7" fill="#26394c" opacity=".45"/><circle cx="800" cy="24" r="0.7" fill="#26394c" opacity=".45"/><circle cx="800" cy="56" r="0.7" fill="#26394c" opacity=".45"/><circle cx="800" cy="88" r="0.7" fill="#26394c" opacity=".45"/><circle cx="800" cy="120" r="0.7" fill="#26394c" opacity=".45"/><circle cx="800" cy="152" r="0.7" fill="#26394c" opacity=".45"/><circle cx="800" cy="184" r="0.7" fill="#26394c" opacity=".45"/><circle cx="800" cy="216" r="0.7" fill="#26394c" opacity=".45"/><circle cx="800" cy="248" r="0.7" fill="#26394c" opacity=".45"/><circle cx="800" cy="280" r="0.7" fill="#26394c" opacity=".45"/><circle cx="800" cy="312" r="0.7" fill="#26394c" opacity=".45"/><circle cx="800" cy="344" r="0.7" fill="#26394c" opacity=".45"/><circle cx="800" cy="376" r="0.7" fill="#26394c" opacity=".45"/><circle cx="800" cy="408" r="0.7" fill="#26394c" opacity=".45"/><circle cx="800" cy="440" r="0.7" fill="#26394c" opacity=".45"/><circle cx="800" cy="472" r="0.7" fill="#26394c" opacity=".45"/><circle cx="800" cy="504" r="0.7" fill="#26394c" opacity=".45"/><circle cx="800" cy="536" r="0.7" fill="#26394c" opacity=".45"/><circle cx="832" cy="24" r="0.7" fill="#26394c" opacity=".45"/><circle cx="832" cy="56" r="0.7" fill="#26394c" opacity=".45"/><circle cx="832" cy="88" r="0.7" fill="#26394c" opacity=".45"/><circle cx="832" cy="120" r="0.7" fill="#26394c" opacity=".45"/><circle cx="832" cy="152" r="0.7" fill="#26394c" opacity=".45"/><circle cx="832" cy="184" r="0.7" fill="#26394c" opacity=".45"/><circle cx="832" cy="216" r="0.7" fill="#26394c" opacity=".45"/><circle cx="832" cy="248" r="0.7" fill="#26394c" opacity=".45"/><circle cx="832" cy="280" r="0.7" fill="#26394c" opacity=".45"/><circle cx="832" cy="312" r="0.7" fill="#26394c" opacity=".45"/><circle cx="832" cy="344" r="0.7" fill="#26394c" opacity=".45"/><circle cx="832" cy="376" r="0.7" fill="#26394c" opacity=".45"/><circle cx="832" cy="408" r="0.7" fill="#26394c" opacity=".45"/><circle cx="832" cy="440" r="0.7" fill="#26394c" opacity=".45"/><circle cx="832" cy="472" r="0.7" fill="#26394c" opacity=".45"/><circle cx="832" cy="504" r="0.7" fill="#26394c" opacity=".45"/><circle cx="832" cy="536" r="0.7" fill="#26394c" opacity=".45"/><circle cx="864" cy="24" r="0.7" fill="#26394c" opacity=".45"/><circle cx="864" cy="56" r="0.7" fill="#26394c" opacity=".45"/><circle cx="864" cy="88" r="0.7" fill="#26394c" opacity=".45"/><circle cx="864" cy="120" r="0.7" fill="#26394c" opacity=".45"/><circle cx="864" cy="152" r="0.7" fill="#26394c" opacity=".45"/><circle cx="864" cy="184" r="0.7" fill="#26394c" opacity=".45"/><circle cx="864" cy="216" r="0.7" fill="#26394c" opacity=".45"/><circle cx="864" cy="248" r="0.7" fill="#26394c" opacity=".45"/><circle cx="864" cy="280" r="0.7" fill="#26394c" opacity=".45"/><circle cx="864" cy="312" r="0.7" fill="#26394c" opacity=".45"/><circle cx="864" cy="344" r="0.7" fill="#26394c" opacity=".45"/><circle cx="864" cy="376" r="0.7" fill="#26394c" opacity=".45"/><circle cx="864" cy="408" r="0.7" fill="#26394c" opacity=".45"/><circle cx="864" cy="440" r="0.7" fill="#26394c" opacity=".45"/><circle cx="864" cy="472" r="0.7" fill="#26394c" opacity=".45"/><circle cx="864" cy="504" r="0.7" fill="#26394c" opacity=".45"/><circle cx="864" cy="536" r="0.7" fill="#26394c" opacity=".45"/><circle cx="896" cy="24" r="0.7" fill="#26394c" opacity=".45"/><circle cx="896" cy="56" r="0.7" fill="#26394c" opacity=".45"/><circle cx="896" cy="88" r="0.7" fill="#26394c" opacity=".45"/><circle cx="896" cy="120" r="0.7" fill="#26394c" opacity=".45"/><circle cx="896" cy="152" r="0.7" fill="#26394c" opacity=".45"/><circle cx="896" cy="184" r="0.7" fill="#26394c" opacity=".45"/><circle cx="896" cy="216" r="0.7" fill="#26394c" opacity=".45"/><circle cx="896" cy="248" r="0.7" fill="#26394c" opacity=".45"/><circle cx="896" cy="280" r="0.7" fill="#26394c" opacity=".45"/><circle cx="896" cy="312" r="0.7" fill="#26394c" opacity=".45"/><circle cx="896" cy="344" r="0.7" fill="#26394c" opacity=".45"/><circle cx="896" cy="376" r="0.7" fill="#26394c" opacity=".45"/><circle cx="896" cy="408" r="0.7" fill="#26394c" opacity=".45"/><circle cx="896" cy="440" r="0.7" fill="#26394c" opacity=".45"/><circle cx="896" cy="472" r="0.7" fill="#26394c" opacity=".45"/><circle cx="896" cy="504" r="0.7" fill="#26394c" opacity=".45"/><circle cx="896" cy="536" r="0.7" fill="#26394c" opacity=".45"/><circle cx="928" cy="24" r="0.7" fill="#26394c" opacity=".45"/><circle cx="928" cy="56" r="0.7" fill="#26394c" opacity=".45"/><circle cx="928" cy="88" r="0.7" fill="#26394c" opacity=".45"/><circle cx="928" cy="120" r="0.7" fill="#26394c" opacity=".45"/><circle cx="928" cy="152" r="0.7" fill="#26394c" opacity=".45"/><circle cx="928" cy="184" r="0.7" fill="#26394c" opacity=".45"/><circle cx="928" cy="216" r="0.7" fill="#26394c" opacity=".45"/><circle cx="928" cy="248" r="0.7" fill="#26394c" opacity=".45"/><circle cx="928" cy="280" r="0.7" fill="#26394c" opacity=".45"/><circle cx="928" cy="312" r="0.7" fill="#26394c" opacity=".45"/><circle cx="928" cy="344" r="0.7" fill="#26394c" opacity=".45"/><circle cx="928" cy="376" r="0.7" fill="#26394c" opacity=".45"/><circle cx="928" cy="408" r="0.7" fill="#26394c" opacity=".45"/><circle cx="928" cy="440" r="0.7" fill="#26394c" opacity=".45"/><circle cx="928" cy="472" r="0.7" fill="#26394c" opacity=".45"/><circle cx="928" cy="504" r="0.7" fill="#26394c" opacity=".45"/><circle cx="928" cy="536" r="0.7" fill="#26394c" opacity=".45"/><path d="M28 52V28H52 M908 28h24v24 M28 488v24h24 M908 512h24v-24" fill="none" stroke="#b1d9ff" stroke-width="1" opacity=".5"/><text x="48" y="42" font-size="19" font-weight="600" fill="#7ef0cf" letter-spacing="2">RVM / FIELD GUIDE</text><text x="911" y="42" font-size="19" font-weight="500" fill="#9bb1c7" text-anchor="end" class="mono">03 / 12</text><text x="48" y="98" font-size="46" font-weight="750" fill="#eff7ff" letter-spacing="-1.4">Let the graph shape isolation</text><text x="49" y="138" font-size="25" font-weight="500" fill="#9bb1c7" >Communication and cut pressure inform placement.</text><ellipse cx="240" cy="310" rx="169" ry="115" fill="#0b1a28" stroke="#7ef0cf" stroke-opacity=".5"/><path d="M350.0 310.0L206.0 378.5" fill="none" stroke="#b1d9ff" stroke-width="0.9" opacity=".27"/><path d="M350.0 310.0L151.0 267.7" fill="none" stroke="#b1d9ff" stroke-width="0.9" opacity=".27"/><path d="M350.0 310.0L329.0 267.7" fill="none" stroke="#b1d9ff" stroke-width="0.9" opacity=".27"/><path d="M350.0 310.0L275.0 328.0" fill="none" stroke="#b1d9ff" stroke-width="0.9" opacity=".27"/><circle cx="350.0" cy="310.0" r="4" fill="#eff7ff" /><path d="M329.0 352.3L274.0 378.5" fill="none" stroke="#b1d9ff" stroke-width="0.9" opacity=".27"/><path d="M329.0 352.3L130.0 310.0" fill="none" stroke="#b1d9ff" stroke-width="0.9" opacity=".27"/><path d="M329.0 352.3L274.0 241.5" fill="none" stroke="#b1d9ff" stroke-width="0.9" opacity=".27"/><path d="M329.0 352.3L200.0 280.0" fill="none" stroke="#b1d9ff" stroke-width="0.9" opacity=".27"/><circle cx="329.0" cy="352.3" r="4" fill="#eff7ff" /><path d="M274.0 378.5L151.0 352.3" fill="none" stroke="#b1d9ff" stroke-width="0.9" opacity=".27"/><path d="M274.0 378.5L206.0 241.5" fill="none" stroke="#b1d9ff" stroke-width="0.9" opacity=".27"/><path d="M274.0 378.5L240.0 310.0" fill="none" stroke="#b1d9ff" stroke-width="0.9" opacity=".27"/><circle cx="274.0" cy="378.5" r="4" fill="#eff7ff" /><path d="M206.0 378.5L151.0 267.7" fill="none" stroke="#b1d9ff" stroke-width="0.9" opacity=".27"/><path d="M206.0 378.5L329.0 267.7" fill="none" stroke="#b1d9ff" stroke-width="0.9" opacity=".27"/><path d="M206.0 378.5L275.0 328.0" fill="none" stroke="#b1d9ff" stroke-width="0.9" opacity=".27"/><circle cx="206.0" cy="378.5" r="4" fill="#eff7ff" /><path d="M151.0 352.3L130.0 310.0" fill="none" stroke="#b1d9ff" stroke-width="0.9" opacity=".27"/><path d="M151.0 352.3L274.0 241.5" fill="none" stroke="#b1d9ff" stroke-width="0.9" opacity=".27"/><path d="M151.0 352.3L200.0 280.0" fill="none" stroke="#b1d9ff" stroke-width="0.9" opacity=".27"/><circle cx="151.0" cy="352.3" r="4" fill="#eff7ff" /><path d="M130.0 310.0L206.0 241.5" fill="none" stroke="#b1d9ff" stroke-width="0.9" opacity=".27"/><path d="M130.0 310.0L240.0 310.0" fill="none" stroke="#b1d9ff" stroke-width="0.9" opacity=".27"/><circle cx="130.0" cy="310.0" r="4" fill="#eff7ff" /><path d="M151.0 267.7L329.0 267.7" fill="none" stroke="#b1d9ff" stroke-width="0.9" opacity=".27"/><path d="M151.0 267.7L275.0 328.0" fill="none" stroke="#b1d9ff" stroke-width="0.9" opacity=".27"/><circle cx="151.0" cy="267.7" r="4" fill="#eff7ff" /><path d="M206.0 241.5L274.0 241.5" fill="none" stroke="#b1d9ff" stroke-width="0.9" opacity=".27"/><path d="M206.0 241.5L200.0 280.0" fill="none" stroke="#b1d9ff" stroke-width="0.9" opacity=".27"/><circle cx="206.0" cy="241.5" r="4" fill="#eff7ff" /><path d="M274.0 241.5L240.0 310.0" fill="none" stroke="#b1d9ff" stroke-width="0.9" opacity=".27"/><circle cx="274.0" cy="241.5" r="4" fill="#eff7ff" /><path d="M329.0 267.7L275.0 328.0" fill="none" stroke="#b1d9ff" stroke-width="0.9" opacity=".27"/><circle cx="329.0" cy="267.7" r="4" fill="#eff7ff" /><path d="M240.0 310.0L200.0 280.0" fill="none" stroke="#b1d9ff" stroke-width="0.9" opacity=".27"/><circle cx="240" cy="310" r="4" fill="#eff7ff" /><circle cx="200" cy="280" r="4" fill="#eff7ff" /><circle cx="275" cy="328" r="4" fill="#eff7ff" /><text x="240" y="462" font-size="26" font-weight="600" fill="#7ef0cf" text-anchor="middle">DOMAIN A</text><ellipse cx="710" cy="310" rx="169" ry="115" fill="#0b1a28" stroke="#b2a0ff" stroke-opacity=".5"/><path d="M820.0 310.0L676.0 378.5" fill="none" stroke="#b1d9ff" stroke-width="0.9" opacity=".27"/><path d="M820.0 310.0L621.0 267.7" fill="none" stroke="#b1d9ff" stroke-width="0.9" opacity=".27"/><path d="M820.0 310.0L799.0 267.7" fill="none" stroke="#b1d9ff" stroke-width="0.9" opacity=".27"/><path d="M820.0 310.0L745.0 328.0" fill="none" stroke="#b1d9ff" stroke-width="0.9" opacity=".27"/><circle cx="820.0" cy="310.0" r="4" fill="#eff7ff" /><path d="M799.0 352.3L744.0 378.5" fill="none" stroke="#b1d9ff" stroke-width="0.9" opacity=".27"/><path d="M799.0 352.3L600.0 310.0" fill="none" stroke="#b1d9ff" stroke-width="0.9" opacity=".27"/><path d="M799.0 352.3L744.0 241.5" fill="none" stroke="#b1d9ff" stroke-width="0.9" opacity=".27"/><path d="M799.0 352.3L670.0 280.0" fill="none" stroke="#b1d9ff" stroke-width="0.9" opacity=".27"/><circle cx="799.0" cy="352.3" r="4" fill="#eff7ff" /><path d="M744.0 378.5L621.0 352.3" fill="none" stroke="#b1d9ff" stroke-width="0.9" opacity=".27"/><path d="M744.0 378.5L676.0 241.5" fill="none" stroke="#b1d9ff" stroke-width="0.9" opacity=".27"/><path d="M744.0 378.5L710.0 310.0" fill="none" stroke="#b1d9ff" stroke-width="0.9" opacity=".27"/><circle cx="744.0" cy="378.5" r="4" fill="#eff7ff" /><path d="M676.0 378.5L621.0 267.7" fill="none" stroke="#b1d9ff" stroke-width="0.9" opacity=".27"/><path d="M676.0 378.5L799.0 267.7" fill="none" stroke="#b1d9ff" stroke-width="0.9" opacity=".27"/><path d="M676.0 378.5L745.0 328.0" fill="none" stroke="#b1d9ff" stroke-width="0.9" opacity=".27"/><circle cx="676.0" cy="378.5" r="4" fill="#eff7ff" /><path d="M621.0 352.3L600.0 310.0" fill="none" stroke="#b1d9ff" stroke-width="0.9" opacity=".27"/><path d="M621.0 352.3L744.0 241.5" fill="none" stroke="#b1d9ff" stroke-width="0.9" opacity=".27"/><path d="M621.0 352.3L670.0 280.0" fill="none" stroke="#b1d9ff" stroke-width="0.9" opacity=".27"/><circle cx="621.0" cy="352.3" r="4" fill="#eff7ff" /><path d="M600.0 310.0L676.0 241.5" fill="none" stroke="#b1d9ff" stroke-width="0.9" opacity=".27"/><path d="M600.0 310.0L710.0 310.0" fill="none" stroke="#b1d9ff" stroke-width="0.9" opacity=".27"/><circle cx="600.0" cy="310.0" r="4" fill="#eff7ff" /><path d="M621.0 267.7L799.0 267.7" fill="none" stroke="#b1d9ff" stroke-width="0.9" opacity=".27"/><path d="M621.0 267.7L745.0 328.0" fill="none" stroke="#b1d9ff" stroke-width="0.9" opacity=".27"/><circle cx="621.0" cy="267.7" r="4" fill="#eff7ff" /><path d="M676.0 241.5L744.0 241.5" fill="none" stroke="#b1d9ff" stroke-width="0.9" opacity=".27"/><path d="M676.0 241.5L670.0 280.0" fill="none" stroke="#b1d9ff" stroke-width="0.9" opacity=".27"/><circle cx="676.0" cy="241.5" r="4" fill="#eff7ff" /><path d="M744.0 241.5L710.0 310.0" fill="none" stroke="#b1d9ff" stroke-width="0.9" opacity=".27"/><circle cx="744.0" cy="241.5" r="4" fill="#eff7ff" /><path d="M799.0 267.7L745.0 328.0" fill="none" stroke="#b1d9ff" stroke-width="0.9" opacity=".27"/><circle cx="799.0" cy="267.7" r="4" fill="#eff7ff" /><path d="M710.0 310.0L670.0 280.0" fill="none" stroke="#b1d9ff" stroke-width="0.9" opacity=".27"/><circle cx="710" cy="310" r="4" fill="#eff7ff" /><circle cx="670" cy="280" r="4" fill="#eff7ff" /><circle cx="745" cy="328" r="4" fill="#eff7ff" /><text x="710" y="462" font-size="26" font-weight="600" fill="#b2a0ff" text-anchor="middle">DOMAIN B</text><path d="M240 310C360 173 592 440 710 310" fill="none" stroke="#2b4358" stroke-width="2" marker-end="url(#arrow)"/><path d="M240 310C360 173 592 440 710 310" fill="none" stroke="#ffac78" stroke-width="5" opacity=".16" pathLength="100" class="packet" style="animation-delay:0s" filter="url(#glow)"/><path d="M240 310C360 173 592 440 710 310" fill="none" stroke="#ffac78" stroke-width="2.2" pathLength="100" class="packet" style="animation-delay:0s"/><path d="M477 204V436" fill="none" stroke="#ffac78" stroke-width="1.5" stroke-dasharray="4 8" opacity=".6"/><rect x="366" y="173" width="225" height="43" rx="20" fill="#05090f" stroke="#2b4358" /><text x="478" y="202" font-size="20" font-weight="600" fill="#ffac78" text-anchor="middle">CUT PRESSURE</text><circle cx="480" cy="310" r="8" fill="#ffac78" class="pulse"/><path d="M48 489H912" fill="none" stroke="#2b4358" stroke-width="1" /><text x="49" y="521" font-size="23" font-weight="550" fill="#7ef0cf" >OBSERVE → SCORE → SPLIT / MIGRATE → OBSERVE</text></svg>
